<svg id="How_It_Works_1:_Join" data-name="How It Works — 1: Join" xmlns="http://www.w3.org/2000/svg" viewBox="0 0 800 800"><defs><style>.cls-1{fill:none;}.cls-2{fill:#fff;}</style></defs><title>procoach</title><path class="cls-1" d="M359.62,401.16a80.78,80.78,0,1,0-29.56-110.31A80.72,80.72,0,0,0,359.62,401.16Z"/><path class="cls-2" d="M516.56,398.52A134.6,134.6,0,0,0,332.64,214.68h0a134.61,134.61,0,0,0-15.5,222.59l-30.85,166L400,532.8l113.73,70.51-30.85-166A134.83,134.83,0,0,0,516.56,398.52ZM330.06,290.84a80.77,80.77,0,1,1,29.56,110.31A80.4,80.4,0,0,1,330.06,290.84Z"/></svg>