<?xml version="1.0" encoding="utf-8"?>
<!-- Generator: Adobe Illustrator 19.1.0, SVG Export Plug-In . SVG Version: 6.00 Build 0)  -->
<!DOCTYPE svg PUBLIC "-//W3C//DTD SVG 1.1//EN" "http://www.w3.org/Graphics/SVG/1.1/DTD/svg11.dtd">
<svg version="1.1" id="Layer_1" xmlns="http://www.w3.org/2000/svg" xmlns:xlink="http://www.w3.org/1999/xlink" x="0px" y="0px"
	 viewBox="0 0 1058.3 590" style="enable-background:new 0 0 1058.3 590;" xml:space="preserve">
<style type="text/css">
	.st0{opacity:0.13;fill:#FFFFFF;}
</style>
<path class="st0" d="M543.2,24.5L523.6-0.2L0.1,0.6l-0.5,360.3l46.3,58.3c13.5,17,42,28.3,63.4,25.1L394,402
	c21.4-3.2,45.5-22.2,53.4-42.4L553.2,92C561.2,71.9,556.7,41.5,543.2,24.5z"/>
<path class="st0" d="M685.8-0.7L646,224c-3.2,18.2,5.7,42.9,19.9,54.8L854,436.9c14.2,11.9,40,16.5,57.4,10.2l146.4-53.1l0.6-394
	L685.8-0.7z"/>
<path class="st0" d="M712.8,185.3l-230.8-54.1c-17.4-4.1-41.6,3.2-53.8,16.2L266,320.2c-12.2,13-18,37.6-12.8,54.7l64.8,214.7
	l411.7,0.9l79.9-85c12.2-13,18-37.6,12.8-54.7l-68.5-226.9C748.7,206.8,730.2,189.4,712.8,185.3z"/>
</svg>
