<svg id="How_It_Works_1:_Join" data-name="How It Works — 1: Join" xmlns="http://www.w3.org/2000/svg" viewBox="0 0 800 800"><defs><style>.cls-1{fill:#fff;}</style></defs><title>procoach</title><path class="cls-1" d="M619.2,180.8A310,310,0,0,0,180.8,619.2,310,310,0,0,0,619.2,180.8ZM583.85,583.85A260,260,0,1,1,660,400,258.3,258.3,0,0,1,583.85,583.85Z"/><path class="cls-1" d="M500.49,278.62a60,60,0,0,0-39.1-14.49H338.61a60,60,0,0,0-39.1,14.49l-59.92,65.86A40,40,0,0,0,238.46,397L376.06,562.1a30,30,0,0,0,47.89,0L561.54,397a40,40,0,0,0-1.14-52.53ZM398.1,491.3c-29.24,0-57.44-9.75-75.2-26.11l19.15-32c12.53,11.84,37.25,23.32,58.14,23.32,19.15,0,28.2-7.31,28.2-17.75,0-27.5-99.57-4.87-99.57-71,0-28.2,24.37-52.92,68.93-52.92,28.2,0,50.83,9.75,67.54,23L447.53,369.1c-10.1-10.44-29.24-19.5-49.78-19.5-16,0-26.46,7-26.46,16.36,0,24.72,99.91,3.83,99.91,71.71C471.21,468.67,444.75,491.3,398.1,491.3Z"/></svg>