<svg id="icons_save-money" data-name="icons/save-money" xmlns="http://www.w3.org/2000/svg" viewBox="0 0 800 800"><defs><style>.cls-1{fill:#fff;}</style></defs><title>piggy-bank</title><path id="Piggy_Bank" data-name="Piggy Bank" class="cls-1" d="M653,376.11H626.33c-4.28-20.15-13.7-39.76-28.1-57.95a179.38,179.38,0,0,0-26.64-27,117.21,117.21,0,0,1,21.48-42,60.21,60.21,0,0,0-68,12.72c-36.69-17.45-80.08-27.24-125.19-27.24h0c-40,0-79.55,7.74-114.32,22.38-39,16.41-69.76,40.25-89.62,68.86-6.34-5.7-10.81-12.1-11.47-20.58C183.62,294.8,188,285,193.9,277.23A43.25,43.25,0,0,0,183.22,348c-1.59,3.43-3,6.9-4.34,10.43-15.82,43.07-7.7,88.06,22.87,126.68,16.48,20.81,38.72,38.44,64.75,52.05L265,576c0,6.6,8.32,12,18.49,12l24.22-1c10.17,0,15.76-7.66,18.49-12l8.93-13.33a308.76,308.76,0,0,0,125.15,1L468.05,575c2.91,6.61,7.84,12,17.43,12h26.58c9.59,0,17.43-5.4,17.43-12l-0.81-35.3c37.09-18.33,65.56-43.83,82.6-73.81H641a12,12,0,0,0,12-12l12-65.78A12,12,0,0,0,653,376.11Z"/></svg>