<svg id="icons_supercoach" data-name="icons/supercoach" xmlns="http://www.w3.org/2000/svg" viewBox="0 0 800 800"><defs><style>.cls-1{fill:#fff;}</style></defs><title>play-btn</title><path class="cls-1" d="M400,57A343.1,343.1,0,0,1,533.5,716.05a343.09,343.09,0,0,1-267-632.11A340.84,340.84,0,0,1,400,57m0-22C198.42,35,35,198.42,35,400S198.42,765,400,765,765,601.58,765,400,601.58,35,400,35h0Z"/><path class="cls-1" d="M595.17,414L314.51,576a16.14,16.14,0,0,1-24.22-14V238a16.14,16.14,0,0,1,24.22-14L595.17,386A16.14,16.14,0,0,1,595.17,414Z"/></svg>