<?xml version="1.0" encoding="utf-8"?>
<!-- Generator: Adobe Illustrator 19.0.0, SVG Export Plug-In . SVG Version: 6.00 Build 0)  -->
<svg version="1.1" id="Layer_1" xmlns="http://www.w3.org/2000/svg" xmlns:xlink="http://www.w3.org/1999/xlink" x="0px" y="0px"
	 viewBox="0 0 176.2 26.8" style="enable-background:new 0 0 176.2 26.8;" xml:space="preserve">
<style type="text/css">
	.st0{fill:#FFFFFF;}
</style>
<g id="Layer_1_1_">
	<g>
		<path class="st0" d="M13.7,10.4c0,1.2-0.9,2.1-2.2,2.1H7.8V8.3H8h3.5C12.8,8.3,13.7,9.2,13.7,10.4z M29.5,14.8l-6.1,10.5
			c-0.4,0.8-1.6,1.4-2.5,1.4H8.9c-0.9,0-2-0.7-2.5-1.4L0.3,14.8c-0.4-0.8-0.4-2.1,0-2.9L6.4,1.4C6.8,0.7,8,0,8.9,0H21
			c0.9,0,2,0.7,2.5,1.4l6.1,10.5C30,12.7,30,14,29.5,14.8z M15.6,10.4c0-2.1-1.6-3.6-3.8-3.6h-5c-0.5,0-0.9,0.4-0.9,0.9
			c0,0,0,10.3,0,10.7c0.3,0,1.6,0,1.9,0c0-0.4,0-4.3,0-4.3h4C14,14,15.6,12.5,15.6,10.4z M24.5,13.5c0-2.1-1.7-3.7-3.9-3.7
			s-3.9,1.6-3.9,3.7c0,0,0,4.5,0,4.9c0.3,0,1.5,0,1.8,0c0-0.4,0-4.9,0-4.9c0-1.3,0.8-2.1,2.1-2.1s2.1,0.9,2.1,2.1c0,0,0,4.5,0,4.9
			c0.3,0,1.5,0,1.8,0C24.5,18,24.5,13.5,24.5,13.5z"/>
		<g>
			<path class="st0" d="M43.7,14.2H40v4.2h-2.2V7.9c0-0.6,0.5-1.1,1.1-1.1h4.8c2.3,0,3.8,1.7,3.8,3.7S46,14.2,43.7,14.2z M43.3,8.7
				h-3.4v3.6h3.4c1,0,1.9-0.7,1.9-1.8C45.2,9.4,44.3,8.7,43.3,8.7z"/>
			<path class="st0" d="M50.8,14.6v3.8h-2.1V9.9h2.1v1.5c0.4-0.8,1.6-1.7,2.9-1.7v2C51.7,11.8,50.8,12.9,50.8,14.6z"/>
			<path class="st0" d="M56.5,14.9c0,1.3,1.1,2,2.7,2c0.8,0,1.7-0.1,2.5-0.4l0.4,1.5c-1,0.3-1.8,0.5-2.9,0.5c-3.1,0-4.8-1.8-4.8-4.4
				c0-2.3,1.5-4.4,4.1-4.4c2.5,0,3.9,1.8,3.9,4.4v0.7H56.5z M58.6,11.4c-1.1,0-1.9,0.7-2.1,2h4C60.4,12.2,59.8,11.4,58.6,11.4z"/>
			<path class="st0" d="M68.5,18.6c-2.8,0-4.7-1.9-4.7-4.4s1.9-4.4,4.7-4.4c0.8,0,1.5,0.1,2.2,0.4l-0.4,1.5
				c-0.6-0.1-1.2-0.2-1.7-0.2c-1.8,0-2.7,1.1-2.7,2.7s0.9,2.7,2.7,2.7c0.6,0,1.1-0.1,1.7-0.3l0.4,1.5C70.1,18.4,69.2,18.6,68.5,18.6
				z"/>
			<path class="st0" d="M72.8,8.5V6.4h2.1v2.1H72.8z M72.8,18.4V9.9h2.1v8.5H72.8z"/>
			<path class="st0" d="M80.3,18.6c-1.1,0-2.4-0.3-3.5-0.7l0.5-1.5c1,0.4,2.1,0.6,3,0.6c1.1,0,1.5-0.4,1.5-0.8
				c0-0.5-0.4-0.7-1.6-1.2c-2.3-0.9-3-1.4-3-2.8c0-1.6,1.2-2.4,3.4-2.4c0.8,0,2.1,0.1,3,0.4l-0.4,1.5c-0.7-0.2-1.8-0.4-2.6-0.4
				c-1.1,0-1.4,0.2-1.4,0.7c0,0.6,0.4,0.7,1.9,1.3c2.1,0.8,2.8,1.2,2.8,2.7C83.9,17.5,82.5,18.6,80.3,18.6z"/>
			<path class="st0" d="M85.7,8.5V6.4h2.1v2.1H85.7z M85.7,18.4V9.9h2.1v8.5H85.7z"/>
			<path class="st0" d="M94,18.6c-2.6,0-4.3-2.1-4.3-4.4s1.7-4.4,4.3-4.4c2.6,0,4.3,2.1,4.3,4.4C98.3,16.5,96.5,18.6,94,18.6z
				 M94,11.4c-1.4,0-2.1,1.1-2.1,2.7s0.8,2.7,2.1,2.7c1.4,0,2.2-1.1,2.2-2.7S95.3,11.4,94,11.4z"/>
			<path class="st0" d="M105.7,18.4v-5.1c0-1.1-0.5-1.7-1.5-1.7c-1,0-2,0.8-2,2v4.7h-2.1V9.9h2.1v1.4c0.5-0.8,1.6-1.5,2.9-1.5
				c1.9,0,2.8,1.3,2.8,3.2v5.4H105.7z"/>
			<path class="st0" d="M120.2,18.5c-0.2,0-0.4,0-0.6-0.3l-6.7-8.7v8.9h-1.5v-11c0-0.4,0.4-0.8,0.8-0.8c0.3,0,0.4,0.1,0.6,0.3
				l6.7,8.7V6.8h1.5v10.9C121,18.2,120.6,18.5,120.2,18.5z"/>
			<path class="st0" d="M129.1,18.4v-1.5c-0.6,0.9-1.7,1.6-2.9,1.6c-1.9,0-2.9-1.2-2.9-3.1V9.9h1.5v5.3c0,1.3,0.5,1.9,1.8,1.9
				c1.2,0,2.5-1.1,2.5-2.7V9.9h1.5v8.5H129.1z"/>
			<path class="st0" d="M135.9,18.6c-1.4,0-2.3-0.7-2.3-2.5v-5h-1.1V9.9h1.1V7.5h1.5v2.4h1.7v1.1h-1.7v5c0,1,0.4,1.3,1,1.3
				c0.2,0,0.5,0,0.8-0.1l0.2,1.1C136.7,18.5,136.2,18.6,135.9,18.6z"/>
			<path class="st0" d="M140.5,14.3v4.1H139V9.9h1.5v1.7c0.5-0.9,1.6-1.8,2.9-1.8v1.4C141.8,11.1,140.5,12.7,140.5,14.3z"/>
			<path class="st0" d="M145,8.5V6.6h1.5v1.9H145z M145,18.4V9.9h1.5v8.5H145z"/>
			<path class="st0" d="M152.2,18.6c-1.4,0-2.3-0.7-2.3-2.5v-5h-1.2V9.9h1.1V7.5h1.5v2.4h1.7v1.1h-1.7v5c0,1,0.4,1.3,1,1.3
				c0.2,0,0.5,0,0.8-0.1l0.2,1.1C153,18.5,152.5,18.6,152.2,18.6z"/>
			<path class="st0" d="M155.3,8.5V6.6h1.5v1.9H155.3z M155.3,18.4V9.9h1.5v8.5H155.3z"/>
			<path class="st0" d="M163.1,18.6c-2.5,0-4.1-2.1-4.1-4.4c0-2.4,1.6-4.4,4.1-4.4c2.5,0,4.1,2.1,4.1,4.4S165.6,18.6,163.1,18.6z
				 M163.1,11c-1.6,0-2.6,1.3-2.6,3.2s1,3.2,2.6,3.2c1.6,0,2.6-1.3,2.6-3.2S164.7,11,163.1,11z"/>
			<path class="st0" d="M174.6,18.4v-5.4c0-1.3-0.5-1.9-1.8-1.9c-1.2,0-2.5,1.1-2.5,2.8v4.5h-1.5V9.9h1.5v1.5
				c0.6-0.9,1.7-1.6,2.9-1.6c1.9,0,2.9,1.3,2.9,3.2v5.5H174.6z"/>
		</g>
	</g>
</g>
</svg>
