<svg id="How_It_Works_1:_Join" data-name="How It Works — 1: Join" xmlns="http://www.w3.org/2000/svg" viewBox="0 0 800 800"><defs><style>.cls-1{fill:#fff;}</style></defs><title>procoach</title><path class="cls-1" d="M619.2,180.8A310,310,0,0,0,180.8,619.2,310,310,0,0,0,619.2,180.8ZM583.85,583.85A260,260,0,1,1,660,400,258.3,258.3,0,0,1,583.85,583.85Z"/><path class="cls-1" d="M420.32,368.15V302.92c23.15,4.56,45.74,14.94,64,31.83l37.39-50.17c-26.62-24.61-60.81-39.23-101.39-43V199.68A19.74,19.74,0,0,0,400.63,180H400a19.74,19.74,0,0,0-19.68,19.68v41.8c-63.39,6.55-101.44,47.09-101.44,95.16,0,64,52.76,82.41,101.44,94.34v73.72A139.81,139.81,0,0,1,305.39,464l-36.92,52.54c26,26,62.45,44.81,111.85,49.19v34.61A19.74,19.74,0,0,0,400,620h0.63a19.74,19.74,0,0,0,19.68-19.68V566c73-5.62,109-47,109-100.64C529.28,398.47,470.84,380.39,420.32,368.15ZM348,331.44c0-16,11.55-27.31,32.33-30.39v57C361.12,352.15,348,344.81,348,331.44ZM420.32,506.1V440.72c23.46,6.5,40.33,14.57,40.33,31.3C460.64,487.89,447.69,502.34,420.32,506.1Z"/></svg>