<svg id="icons_supercoach" data-name="icons/supercoach" xmlns="http://www.w3.org/2000/svg" viewBox="0 0 800 800"><defs><style>.cls-1{fill:#fff;}</style></defs><title>supercoach-center</title><g id="shield"><rect class="cls-1" x="603.23" y="178.12" width="18.23" height="142.06" transform="translate(1267.22 158.74) rotate(150)"/><rect class="cls-1" x="176.95" y="179.31" width="18.23" height="132.95" transform="translate(147.82 -60.1) rotate(30)"/><path class="cls-1" d="M160,324.46a27.35,27.35,0,1,1-13.64,3.67A27.33,27.33,0,0,1,160,324.46m0-27.34h0a54.68,54.68,0,1,0,47.38,27.34A54.71,54.71,0,0,0,160,297.12h0Z"/><path class="cls-1" d="M640,324.46a27.35,27.35,0,1,1-13.64,3.67A27.33,27.33,0,0,1,640,324.46m0-27.34h0a54.68,54.68,0,1,0,47.38,27.34A54.71,54.71,0,0,0,640,297.12h0Z"/><path class="cls-1" d="M262.94,141.43a27.35,27.35,0,1,1-13.64,3.67,27.33,27.33,0,0,1,13.64-3.67m0-27.34h0a54.68,54.68,0,1,0,47.38,27.34,54.71,54.71,0,0,0-47.38-27.34h0Z"/><path class="cls-1" d="M531.94,141.43a27.35,27.35,0,1,1-13.64,3.67,27.33,27.33,0,0,1,13.64-3.67m0-27.34h0a54.68,54.68,0,1,0,47.38,27.34,54.71,54.71,0,0,0-47.38-27.34h0Z"/><path class="cls-1" d="M400,629a27.34,27.34,0,1,1-27.34,27.34A27.34,27.34,0,0,1,400,629m0-27.34a54.68,54.68,0,1,0,54.68,54.68A54.74,54.74,0,0,0,400,601.64h0Z"/><polygon class="cls-1" points="143.17 398.96 157.92 388.25 367.54 646.77 352.8 657.48 143.17 398.96"/><polygon class="cls-1" points="658.58 398.96 643.84 388.25 436.74 643.3 451.48 654.01 658.58 398.96"/><rect class="cls-1" x="390.87" y="34.77" width="18.23" height="208.02" transform="translate(261.21 538.77) rotate(-90)"/></g></svg>