<svg id="How_It_Works_1:_Join" data-name="How It Works — 1: Join" xmlns="http://www.w3.org/2000/svg" viewBox="0 0 800 800"><defs><style>.cls-1{fill:#fff;}</style></defs><title>procoach</title><path class="cls-1" d="M619.2,180.8A310,310,0,0,0,180.8,619.2,310,310,0,0,0,619.2,180.8ZM583.85,583.85A260,260,0,1,1,660,400,258.3,258.3,0,0,1,583.85,583.85Z"/><path class="cls-1" d="M431.14,190h0a149.48,149.48,0,0,0-88,270.38L283.69,579.61a19.74,19.74,0,0,0,8.83,26.4l5,2.51a19.74,19.74,0,0,0,26.4-8.83l59.13-118.55A149.55,149.55,0,1,0,431.14,190Zm44.95,227.3a89.75,89.75,0,1,1,32.85-122.59A89.34,89.34,0,0,1,476.09,417.3Z"/></svg>