<svg xmlns="http://www.w3.org/2000/svg" id="How_It_Works_1:_Join" data-name="How It Works — 1: Join" viewBox="0 0 620 620"><defs><style>.cls-1{fill:#ffffff;}</style></defs><path d="M529.2 90.8A310 310 0 0 0 90.8 529.2 310 310 0 0 0 529.2 90.8zm-35.35 403.05a260 260 0 1 1-367.7-367.7 260 260 0 1 1 367.7 367.7z" class="cls-1"/><path d="M315.8 445.12c-29 0-53.47 24.42-53.47 53.46S286.75 552 315.8 552s53.45-24.42 53.45-53.46-24.42-53.42-53.46-53.42zM317.1 98c-56.75 0-109.55 22.44-144.53 64L226 222c20.46-25.08 48.18-40.92 81.18-40.92 36.3 0 52.14 17.16 52.14 37.62 0 45.54-97 54.78-97 132.66 0 23.1 7.92 43.56 21.78 58.74l72.6-21.1c-7.25-5.94-12.53-17.16-12.53-27.72 0-55.44 110.22-62.7 110.22-159.06C454.4 140.86 402.23 98 317.1 98z" class="cls-1"/></svg>