<svg id="How_It_Works_1:_Join" data-name="How It Works — 1: Join" xmlns="http://www.w3.org/2000/svg" viewBox="0 0 800 800"><defs><style>.cls-1{fill:#7d878a;}</style></defs><title>procoach</title><path class="cls-1" d="M619.2,180.8A310,310,0,0,0,180.8,619.2,310,310,0,0,0,619.2,180.8ZM583.85,583.85A260,260,0,1,1,660,400,258.3,258.3,0,0,1,583.85,583.85Z"/><path class="cls-1" d="M597.68,359.35A42.38,42.38,0,0,0,556,394.61H470.18a70.53,70.53,0,0,0-140.35,0H244a42.32,42.32,0,1,0,0,14.11h85.79a70.53,70.53,0,0,0,140.35,0H556A42.31,42.31,0,1,0,597.68,359.35ZM202.32,422.83a21.16,21.16,0,1,1,21.16-21.16A21.16,21.16,0,0,1,202.32,422.83ZM400,444a42.32,42.32,0,1,1,42.32-42.32A42.32,42.32,0,0,1,400,444Zm197.68-21.16a21.16,21.16,0,1,1,21.16-21.16A21.16,21.16,0,0,1,597.68,422.83Z"/></svg>