<svg xmlns="http://www.w3.org/2000/svg" id="How_It_Works_1:_Join" data-name="How It Works — 1: Join" viewBox="0 0 620 620"><defs><style>.cls-1{fill:#ffffff;}</style></defs><path d="M529.2 90.8A310 310 0 0 0 90.8 529.2 310 310 0 0 0 529.2 90.8zm-35.35 403.05a260 260 0 1 1-367.7-367.7 260 260 0 1 1 367.7 367.7z" class="cls-1"/><path d="M507.68 269.35A42.38 42.38 0 0 0 466 304.6h-85.82a70.53 70.53 0 0 0-140.35 0H154a42.32 42.32 0 1 0 0 14.12h85.8a70.53 70.53 0 0 0 140.34 0H466a42.3 42.3 0 1 0 41.68-49.37zm-395.36 63.48a21.16 21.16 0 1 1 21.16-21.16 21.16 21.16 0 0 1-21.16 21.16zM310 354a42.32 42.32 0 1 1 42.32-42.32A42.32 42.32 0 0 1 310 354zm197.68-21.16a21.16 21.16 0 1 1 21.16-21.16 21.16 21.16 0 0 1-21.16 21.15z" class="cls-1"/></svg>