<svg id="How_It_Works_1:_Join" data-name="How It Works — 1: Join" xmlns="http://www.w3.org/2000/svg" viewBox="0 0 800 800"><defs><style>.cls-1{fill:#fff;}</style></defs><title>procoach</title><path class="cls-1" d="M619.2,190.8A310,310,0,1,0,710,410,308,308,0,0,0,619.2,190.8ZM583.85,593.85A260,260,0,1,1,660,410,258.3,258.3,0,0,1,583.85,593.85Z"/><path class="cls-1" d="M415.18,367.63l-8.37-137.56c-0.52-8.55-13.1-8.55-13.62,0l-8.37,137.56A45,45,0,0,0,360.21,431l-63.06,71.66c-6,6.77,3.4,16.13,10.17,10.17L379,449.79A45,45,0,1,0,415.18,367.63Z"/></svg>