<svg xmlns="http://www.w3.org/2000/svg" id="How_It_Works_1:_Join" data-name="How It Works — 1: Join" viewBox="0 0 620 620"><defs><style>.cls-1{fill:#ffffff;}</style></defs><path d="M529.2 90.8A310 310 0 0 0 90.8 529.2 310 310 0 0 0 529.2 90.8zm-35.35 403.05a260 260 0 1 1-367.7-367.7 260 260 0 1 1 367.7 367.7z" class="cls-1"/><path d="M330.32 278.15v-65.23c23.15 4.56 45.74 14.94 64 31.83l37.4-50.17c-26.63-24.6-60.82-39.23-101.4-43v-41.9A19.74 19.74 0 0 0 310.62 90H310a19.74 19.74 0 0 0-19.68 19.68v41.8c-63.4 6.55-101.44 47.08-101.44 95.16 0 64 52.76 82.4 101.44 94.34v73.72A139.8 139.8 0 0 1 215.4 374l-36.93 52.54c26 26 62.45 44.8 111.85 49.2v34.6A19.74 19.74 0 0 0 310 530h.63a19.74 19.74 0 0 0 19.68-19.68V476c73-5.62 109-47 109-100.64 0-66.9-58.44-84.98-108.96-97.2zm-40-10.1c-19.2-5.9-32.33-13.24-32.33-26.6 0-16 11.52-27.32 32.3-30.4v57zm40 148.05v-65.38c23.46 6.5 40.33 14.57 40.33 31.3 0 15.87-12.96 30.32-40.33 34.08z" class="cls-1"/></svg>