<svg id="How_It_Works_1:_Join" data-name="How It Works — 1: Join" xmlns="http://www.w3.org/2000/svg" viewBox="0 0 800 800"><defs><style>.cls-1{fill:#fff;}</style></defs><title>procoach</title><path class="cls-1" d="M619.2,180.8A310,310,0,0,0,180.8,619.2,310,310,0,0,0,619.2,180.8ZM583.85,583.85A260,260,0,1,1,660,400,258.3,258.3,0,0,1,583.85,583.85Z"/><path class="cls-1" d="M405.79,535.12c-29,0-53.46,24.42-53.46,53.46S376.75,642,405.79,642s53.46-24.42,53.46-53.46S434.83,535.12,405.79,535.12Z"/><path class="cls-1" d="M407.11,188c-56.76,0-109.56,22.44-144.54,64L316,312c20.46-25.08,48.18-40.92,81.18-40.92,36.3,0,52.14,17.16,52.14,37.62,0,45.54-97,54.78-97,132.66,0,23.1,7.92,43.56,21.78,58.74L446.71,479c-7.26-5.94-12.54-17.16-12.54-27.72,0-55.44,110.22-62.7,110.22-159.06C544.39,230.86,492.25,188,407.11,188Z"/></svg>