<svg xmlns="http://www.w3.org/2000/svg" id="How_It_Works_1:_Join" data-name="How It Works — 1: Join" viewBox="0 0 620 620"><defs><style>.cls-1{fill:#ffffff;}</style></defs><path d="M529.2 90.8A310 310 0 0 0 90.8 529.2 310 310 0 0 0 529.2 90.8zm-35.35 403.05a260 260 0 1 1-367.7-367.7 260 260 0 1 1 367.7 367.7z" class="cls-1"/><path d="M341.14 100a149.48 149.48 0 0 0-88 270.38L193.7 489.6a19.74 19.74 0 0 0 8.82 26.4l5 2.52a19.74 19.74 0 0 0 26.4-8.83l59.13-118.57A149.55 149.55 0 1 0 341.15 100zm44.95 227.3a89.75 89.75 0 1 1 32.83-122.6 89.34 89.34 0 0 1-32.85 122.6z" class="cls-1"/></svg>