<svg xmlns="http://www.w3.org/2000/svg" id="How_It_Works_1:_Join" data-name="How It Works — 1: Join" viewBox="0 0 620 620"><defs><style>.cls-1{fill:#ffffff;}</style></defs><path d="M529.2 90.8A310 310 0 0 0 90.8 529.2 310 310 0 0 0 529.2 90.8zm-35.35 403.05a260 260 0 1 1-367.7-367.7 260 260 0 1 1 367.7 367.7z" class="cls-1"/><path d="M325.18 267.63l-8.37-137.56c-.5-8.55-13.1-8.55-13.6 0l-8.37 137.56a45 45 0 0 0-24.6 63.37l-63.07 71.66c-6 6.77 3.4 16.13 10.17 10.17L289 349.8a45 45 0 1 0 36.18-82.17z" class="cls-1"/></svg>