<svg id="How_It_Works_1:_Join" data-name="How It Works — 1: Join" xmlns="http://www.w3.org/2000/svg" viewBox="0 0 800 800"><defs><style>.cls-1{fill:#fff;}</style></defs><title>procoach</title><path class="cls-1" d="M582.85,442.13H564.12c-3-14.16-9.62-27.93-19.74-40.71a126.06,126.06,0,0,0-18.71-19A82.35,82.35,0,0,1,540.75,353,42.3,42.3,0,0,0,493,361.91c-25.77-12.26-56.26-19.14-88-19.14h0c-28.12,0-55.89,5.44-80.32,15.73-27.38,11.53-49,28.28-63,48.38-4.46-4-7.59-8.5-8.06-14.46-0.57-7.4,2.48-14.25,6.65-19.74a30.39,30.39,0,0,0-7.5,49.71c-1.12,2.41-2.14,4.85-3.05,7.33-11.12,30.26-5.41,61.87,16.07,89,11.58,14.62,27.2,27,45.49,36.57l-1.05,27.29c0,4.64,5.84,8.43,13,8.43l17-.7c7.14,0,11.07-5.38,13-8.43l6.27-9.37a216.92,216.92,0,0,0,87.92.71l5.47,8.66c2,4.65,5.51,8.43,12.25,8.43h18.67c6.74,0,12.25-3.79,12.25-8.43l-0.57-24.8c26.06-12.88,46.06-30.79,58-51.86h20.87a8.46,8.46,0,0,0,8.43-8.43l8.43-46.21A8.46,8.46,0,0,0,582.85,442.13Z"/><path class="cls-1" d="M405.13,308.06A64,64,0,0,0,405.06,180h0A64,64,0,0,0,405.13,308.06Zm-19.24-97.3a38.42,38.42,0,1,1-14.06,52.48A38.25,38.25,0,0,1,385.89,210.76Z"/><path class="cls-1" d="M619.2,180.8A310,310,0,0,0,180.8,619.2,310,310,0,0,0,619.2,180.8ZM583.85,583.85A260,260,0,1,1,660,400,258.3,258.3,0,0,1,583.85,583.85Z"/></svg>