<svg id="How_It_Works_1:_Join" data-name="How It Works — 1: Join" xmlns="http://www.w3.org/2000/svg" viewBox="0 0 800 800"><defs><style>.cls-1{fill:#fff;}</style></defs><title>procoach</title><path class="cls-1" d="M400,710A310,310,0,0,1,180.8,180.8,310,310,0,0,1,619.2,619.2,308,308,0,0,1,400,710Zm0-570a260,260,0,1,0,183.85,76.15A258.3,258.3,0,0,0,400,140Z"/><path class="cls-1" d="M341.13,506.24l-5.74-21.89,33.51-77-50.23,13.16L312,394.95l90.09-23.6,5.49,21-34.19,78.15,52.07-13.64,6.7,25.58Z"/><path class="cls-1" d="M428,417.91l-9.13-34.86,53.36-122.6-80,21-10.67-40.73,143.47-37.59,8.75,33.39L479.39,360.93l82.93-21.73L573,379.94Z"/><path class="cls-1" d="M267.33,591.82L262.39,573l28.87-66.32L248,518l-5.77-22,77.61-20.33,4.73,18.06L295.1,561,340,549.25l5.77,22Z"/></svg>