<svg id="How_It_Works_1:_Join" data-name="How It Works — 1: Join" xmlns="http://www.w3.org/2000/svg" viewBox="0 0 800 800"><defs><style>.cls-1{fill:#fff;}</style></defs><title>procoach</title><path class="cls-1" d="M400,710A310,310,0,0,1,180.8,180.8,310,310,0,0,1,619.2,619.2,308,308,0,0,1,400,710Zm0-570a260,260,0,1,0,183.85,76.15A258.3,258.3,0,0,0,400,140Z"/><rect class="cls-1" x="354.44" y="294.04" width="91.11" height="175.91" rx="28" ry="28"/><rect class="cls-1" x="455.73" y="463.03" width="39.37" height="160.72" rx="19.68" ry="19.68" transform="translate(-192.56 269.33) rotate(-26.51)"/><rect class="cls-1" x="305.73" y="463.03" width="39.37" height="160.72" rx="19.68" ry="19.68" transform="translate(374.07 1174.9) rotate(-153.49)"/><rect class="cls-1" x="477.41" y="195.55" width="39.37" height="129.88" rx="19.68" ry="19.68" transform="translate(650.22 800.4) rotate(-133.49)"/><rect class="cls-1" x="283.07" y="195.55" width="39.37" height="129.88" rx="19.68" ry="19.68" transform="translate(-94.59 300.86) rotate(-46.51)"/><circle class="cls-1" cx="400" cy="236.93" r="45.56"/></svg>